<svg width="192" height="32" viewBox="0 0 192 32" fill="none" xmlns="http://www.w3.org/2000/svg">
<path d="M27.56 7.96681C27.6927 8.09959 27.8254 8.49794 27.6927 8.76349L23.8459 30.2739C23.7133 30.9378 23.3153 31.3361 22.6522 31.3361H19.0706C18.6728 31.3361 18.4075 31.2034 18.2748 31.0706C18.1422 30.9378 18.0095 30.5395 18.1422 30.2739L20.3972 17.527L14.03 25.7593C13.7648 26.1577 13.4995 26.2905 13.1015 26.2905C12.7036 26.2905 12.4383 26.1577 12.173 25.7593L8.72415 17.527L6.46914 30.2739C6.33649 30.9378 5.93855 31.3361 5.27532 31.3361H1.56118C1.16324 31.3361 0.897943 31.2034 0.765296 31.0706C0.5 30.9378 0.5 30.6723 0.5 30.2739L4.34678 8.63071C4.47943 7.96681 4.87737 7.56847 5.54061 7.56847H8.98945C9.65269 7.56847 10.0506 7.83404 10.1833 8.23238L14.2953 17.9254L21.8562 8.23238C22.2542 7.83404 22.6522 7.56847 23.1827 7.56847H26.7642C27.0296 7.56847 27.4275 7.70125 27.56 7.96681ZM35.3863 21.9088H40.5595L39.4984 13.8091L35.3863 21.9088ZM43.8758 8.63071L47.4572 30.1411C47.4572 30.5395 47.4572 30.8051 47.3245 31.0706C47.1919 31.3361 46.7941 31.4688 46.5288 31.4688H42.6819C42.0187 31.4688 41.4881 31.0706 41.4881 30.4067L40.9575 26.9545H33.3966L31.5396 30.4067C31.2743 31.0706 30.7437 31.3361 30.0804 31.3361H25.9683C25.5703 31.3361 25.3052 31.2034 25.1725 30.9378C25.0399 30.6723 25.0399 30.4067 25.3052 30.0083L36.4474 8.49794C36.5801 8.09958 36.8454 7.83404 36.9781 7.70125C37.2434 7.56847 37.5087 7.4357 37.9067 7.4357H42.5494C43.3451 7.56847 43.7431 7.96681 43.8758 8.63071ZM61.5179 18.722L67.885 29.8755C68.1503 30.1411 68.1503 30.5395 68.0177 30.8051C67.885 31.0706 67.6197 31.3361 67.2217 31.3361H63.2423C62.579 31.3361 62.1811 31.0706 61.7832 30.4067L56.6099 21.5104L55.0182 30.2739C54.8855 30.9378 54.4876 31.3361 53.8243 31.3361H50.1102C49.7122 31.3361 49.4469 31.2034 49.3143 31.0706C49.1816 30.9378 49.0491 30.5395 49.1816 30.2739L53.0285 8.76349C53.1612 8.09958 53.559 7.70125 54.2223 7.70125H57.9363C58.3343 7.70125 58.5996 7.83404 58.7323 7.96681C58.8649 8.09959 58.8649 8.36515 58.7323 8.76349L57.5385 15.5353L64.834 8.49794C65.3647 7.83404 65.8953 7.56847 66.4258 7.56847H70.9358C71.4664 7.56847 71.5991 7.83404 71.7318 8.09958C71.8644 8.36515 71.7318 8.76349 71.3338 9.02905L61.5179 18.722ZM86.7209 17.1286C86.8536 17.2614 86.9862 17.6598 86.9862 17.9254L86.4556 20.5809C86.3229 21.2448 85.925 21.6432 85.2618 21.6432H77.0377L76.1091 26.2905H84.8639C85.2618 26.2905 85.5272 26.4233 85.6598 26.5561C85.7923 26.6889 85.925 27.0871 85.7925 27.3527L85.3945 30.2739C85.2618 31.0706 84.7312 31.3361 84.0679 31.3361H70.538C70.14 31.3361 69.8747 31.2034 69.7421 31.0706C69.6094 30.9378 69.4767 30.5395 69.6094 30.2739L73.4561 8.76349C73.5888 8.09958 73.9868 7.70125 74.6501 7.70125H88.0473C88.4453 7.70125 88.7106 7.83404 88.8433 7.96681C88.9759 8.09959 89.1086 8.49794 88.9759 8.76349L88.4453 11.6847C88.3127 12.3486 87.9148 12.7469 87.2515 12.7469H78.4968L77.8335 16.8631H85.925C86.3229 16.8631 86.5883 16.9958 86.7209 17.1286ZM106.485 8.63071C107.016 8.89628 107.149 9.42739 106.883 10.0913L105.557 12.4813C105.159 13.4108 104.496 13.278 103.965 13.1452C102.771 12.7469 101.312 12.4813 99.7204 12.4813C97.2001 12.4813 95.8736 13.1452 95.8736 14.6058C95.8736 15.1369 96.139 15.5353 96.6694 15.9336C97.2001 16.3319 98.1287 16.7303 99.3224 17.2614C100.251 17.6598 101.047 18.0582 101.577 18.3237C102.108 18.5892 102.771 18.9875 103.434 19.5187C104.098 20.0499 104.628 20.5809 104.894 21.3776C105.159 22.0415 105.424 22.8381 105.424 23.7677C105.424 26.4233 104.496 28.5478 102.506 29.8755C100.649 31.2034 98.1287 32 95.2104 32C93.6186 32 92.1596 31.8672 90.7003 31.6016C89.2412 31.3361 88.18 30.9378 87.5169 30.5395C86.9862 30.2739 86.8536 29.7427 87.1189 29.2116L88.578 26.6889C89.1086 25.8921 89.6392 25.8921 90.0372 26.0249C91.4963 26.6889 93.088 26.9545 94.8124 26.9545C96.0063 26.9545 97.0674 26.8217 97.996 26.4233C98.9244 26.0249 99.3224 25.4938 99.3224 24.5644C99.3224 24.0332 99.0571 23.6349 98.5266 23.2365C97.996 22.8381 97.0674 22.4399 95.741 21.9088C93.8839 21.2448 92.4247 20.3154 91.3636 19.3859C90.3024 18.4564 89.7719 16.9958 89.7719 15.4025C89.7719 12.7469 90.7003 10.7552 92.5574 9.42739C94.4146 8.09959 96.8021 7.4357 99.7204 7.4357C102.506 7.17014 104.894 7.70125 106.485 8.63071ZM140.178 7.56847C140.576 7.56847 140.841 7.70125 140.974 7.96681C141.106 8.23238 141.106 8.49794 140.974 8.89628L131.158 30.4067C130.76 31.0706 130.362 31.3361 129.699 31.3361H125.587C124.658 31.3361 124.393 30.8051 124.393 30.2739L123.332 20.8464L123.066 16.3319L121.209 20.9792L116.832 30.4067C116.567 31.0706 116.036 31.3361 115.373 31.3361H111.261C110.598 31.3361 110.067 30.9378 110.067 30.2739L107.945 8.89628C107.945 8.36515 107.945 8.09958 108.21 7.83404C108.342 7.70125 108.608 7.56847 109.006 7.56847H112.853C113.781 7.56847 114.046 8.09958 114.046 8.63071L114.71 18.5892L114.975 23.9004L117.097 18.4564L121.342 8.49794C121.607 7.83404 122.138 7.56847 122.801 7.56847H126.117C127.046 7.56847 127.311 8.09958 127.444 8.63071L128.24 18.5892L128.505 23.9004L130.627 18.5892L134.739 8.63071C135.005 7.96681 135.403 7.70125 136.198 7.70125H140.178V7.56847ZM171.748 7.56847C172.146 7.56847 172.411 7.70125 172.543 7.83404C172.677 7.96681 172.81 8.36515 172.677 8.63071L172.146 11.5519C172.014 12.2158 171.615 12.6141 170.952 12.6141H162.331L161.534 17.2614H169.625C170.024 17.2614 170.289 17.3942 170.421 17.527C170.555 17.6598 170.687 18.0582 170.555 18.3237L170.024 21.112C169.892 21.776 169.493 22.1743 168.83 22.1743H160.606L159.279 30.1411C159.146 30.8051 158.749 31.2034 158.085 31.2034H154.371C153.973 31.2034 153.708 31.0706 153.575 30.9378C153.443 30.805 153.31 30.4067 153.443 30.1411L157.289 8.63071C157.422 7.96681 157.82 7.56847 158.483 7.56847H171.748ZM191.645 7.96681C191.779 8.09959 191.911 8.49794 191.779 8.76349L191.248 11.8174C191.115 12.6141 190.717 12.8797 189.921 12.8797H185.146L182.094 30.1411C181.962 30.8051 181.565 31.2034 180.901 31.2034H177.186C176.789 31.2034 176.523 31.0706 176.391 30.9378C176.258 30.805 176.126 30.4067 176.258 30.1411L179.308 12.8797H174.533C174.136 12.8797 173.87 12.7469 173.737 12.6141C173.605 12.3486 173.473 12.083 173.605 11.6847L174.136 8.49794C174.268 7.83404 174.667 7.4357 175.33 7.4357H190.849C191.248 7.56847 191.512 7.70125 191.645 7.96681ZM143.759 13.0125C143.229 13.0125 142.698 12.4813 142.964 11.9502L146.014 0.929461C146.147 0.398341 146.678 0 147.208 0H154.106C154.769 0 155.3 0.796681 154.902 1.3278L150.392 7.56847H153.177C153.841 7.56847 154.239 8.36515 153.973 8.89628L146.412 21.3776C146.28 21.6432 146.014 21.776 145.617 21.776H144.555C144.157 21.776 143.892 21.3776 144.025 20.9792L146.147 12.7469H143.759V13.0125ZM146.81 25.4938C147.341 25.4938 147.872 26.0249 147.606 26.5561L146.545 30.5395C146.412 31.0706 145.882 31.4688 145.351 31.4688H141.504C140.974 31.4688 140.443 30.9378 140.576 30.4067L141.637 26.4233C141.77 25.8921 142.3 25.4938 142.831 25.4938H146.81Z" fill="#EA3BA7"/>
</svg>
