<svg width="24" height="24" viewBox="0 0 24 24" fill="none" xmlns="http://www.w3.org/2000/svg">
<path d="M0 1C0 0.447716 0.447715 0 1 0H23C23.5523 0 24 0.447715 24 1V23C24 23.5523 23.5523 24 23 24H1C0.447716 24 0 23.5523 0 23V1Z" fill="url(#paint0_linear_1204_10822)"/>
<path fill-rule="evenodd" clip-rule="evenodd" d="M24 2.51392C22.0312 3.69516 20.252 5.16748 18.7202 6.87283C17.936 7.74188 17.2168 8.67776 16.5635 9.6582C16.2002 10.2004 15.8662 10.7575 15.5542 11.3295L12.5767 16.9225L11.9448 18.1628L11.313 16.9225L7.32617 9.44281L5.16943 5.46902H7.45703L11.9302 13.892C12.7798 11.426 14.0073 9.14572 15.5396 7.11795C15.9751 6.54602 16.4326 5.99637 16.9121 5.46902C18.8369 3.34781 21.1304 1.58151 23.6895 0.275787C23.8809 0.457947 24 0.715057 24 1V2.51392ZM5.14746 19.2696H7.3042V12.1316L5.14746 8.15042V19.2696ZM16.585 12.5402L16.6284 12.4584C16.9409 11.8865 17.2822 11.3295 17.6382 10.7872C17.9868 10.2599 18.3569 9.75479 18.7417 9.25711V19.3068H16.585V12.5402Z" fill="white"/>
<defs>
<linearGradient id="paint0_linear_1204_10822" x1="10.5" y1="-7.19324" x2="24" y2="23.8068" gradientUnits="userSpaceOnUse">
<stop stop-color="#0096FF"/>
<stop offset="1" stop-color="#8E3FF3"/>
</linearGradient>
</defs>
</svg>
