<svg width="172" height="26" viewBox="0 0 172 26" fill="none" xmlns="http://www.w3.org/2000/svg">
<g clip-path="url(#clip0_20_76)">
<path d="M38.6157 25.9999H29.5105C29.4039 25.6867 29.2937 25.3642 29.1845 25.0411C28.5527 23.1675 27.5539 21.501 26.2005 20.0675C24.0272 17.7662 21.4342 16.0485 18.5366 14.7759C15.8636 13.6018 13.0653 12.8485 10.2092 12.2795C8.12013 11.8638 6.01125 11.5889 3.89353 11.388C2.62071 11.2674 1.34166 11.213 0.000732422 11.125C8.74873 9.12355 17.2804 6.5935 25.6827 3.52243C25.5745 3.64254 25.4757 3.77248 25.3567 3.88017C24.2549 4.88194 23.2395 5.95775 22.4544 7.23028C22.1034 7.79925 21.9292 8.41066 21.9308 9.09353C21.9323 9.7417 22.2251 10.1755 22.7388 10.4934C23.3705 10.8843 24.088 11.0028 24.8123 11.094C26.4205 11.2959 28.0219 11.1116 29.6259 11.0272C32.2407 10.8895 34.8232 10.5074 37.3756 9.94879C39.5537 9.47197 41.7306 8.97031 43.8728 8.35682C47.8451 7.21941 51.8081 6.04524 55.7441 4.78875C59.718 3.52036 63.5624 1.91286 67.3148 0.0910362C67.4318 0.0340879 67.553 -0.014577 67.736 0.00354289C67.5696 0.233407 67.4053 0.464824 67.2363 0.692617C66.1372 2.17483 65.0339 3.65393 63.9409 5.1408C63.7787 5.36134 63.5853 5.4975 63.329 5.5824C60.982 6.35794 58.6402 7.15004 56.2911 7.9178C53.2692 8.9056 50.2332 9.85353 47.2836 11.0427C45.9224 11.5915 44.5659 12.1651 43.2561 12.8247C41.2362 13.8415 39.68 15.3475 38.7815 17.4551C38.3313 18.5112 38.1077 19.6139 38.0515 20.7669C37.9699 22.4355 38.1633 24.0611 38.6105 25.6639C38.6287 25.7302 38.6422 25.7985 38.6495 25.8669C38.6526 25.8974 38.6354 25.9305 38.6178 25.9999H38.6157ZM36.4642 13.9631C36.3628 13.9693 36.2593 13.9636 36.161 13.9828C35.416 14.1272 34.6756 14.3043 33.9258 14.4182C32.7487 14.5968 31.5689 14.7697 30.384 14.8764C29.4741 14.9587 28.5548 14.9328 27.6397 14.9613C27.5373 14.9644 27.4364 15.0094 27.2623 15.0534C29.4101 16.4176 31.1727 18.0696 32.7107 20.1203C33.2754 17.5892 34.6506 15.6617 36.4647 13.9626L36.4642 13.9631Z" fill="#001D84"/>
<path d="M125.031 10.7508H130.75C130.75 10.9931 130.75 11.197 130.75 11.401C130.75 14.645 130.75 17.889 130.75 21.1335C130.75 21.6424 130.809 22.128 131.18 22.5282C131.478 22.8502 131.827 23.035 132.272 23.0335C133.017 23.0314 133.763 23.0402 134.508 23.0309C135.158 23.0226 135.744 22.5541 135.891 21.9116C135.955 21.6289 135.98 21.3323 135.98 21.0419C135.986 17.832 135.984 14.6227 135.984 11.4129C135.984 11.2074 135.984 11.0019 135.984 10.7528C136.221 10.7378 136.425 10.714 136.627 10.714C140.925 10.7119 145.223 10.7296 149.521 10.7037C151.178 10.6938 152.658 12.0704 152.657 13.8193C152.654 16.822 152.656 19.8242 152.656 22.8269C152.656 23.6723 152.658 24.5178 152.655 25.3637C152.654 25.5496 152.633 25.7354 152.62 25.9435H146.923C146.916 25.7334 146.904 25.5335 146.904 25.3332C146.903 22.0374 146.904 18.7417 146.899 15.4454C146.899 15.2067 146.886 14.9598 146.824 14.7309C146.648 14.0817 146.149 13.6438 145.48 13.6287C144.269 13.6013 143.055 13.6251 141.843 13.6293C141.811 13.6293 141.78 13.6531 141.689 13.6903C141.682 13.8648 141.669 14.0652 141.669 14.266C141.668 17.1305 141.636 19.9956 141.681 22.859C141.706 24.4753 140.377 25.9715 138.553 25.9679C136.422 25.9637 134.29 25.9668 132.159 25.9668C130.824 25.9668 129.49 25.9731 128.156 25.9648C126.743 25.9565 125.485 25.0023 125.127 23.6496C125.036 23.3043 125.003 22.9346 125.002 22.5763C124.993 18.8147 124.996 15.053 124.997 11.2913C124.997 11.1235 125.018 10.9558 125.031 10.7497V10.7508Z" fill="#001D84"/>
<path d="M98.3441 5.42819C98.355 5.65029 98.3727 5.83667 98.3727 6.02356C98.3742 11.3902 98.3763 16.7568 98.3727 22.1228C98.3711 24.2356 96.672 25.9539 94.5568 25.9643C91.7148 25.9782 88.8728 25.9679 86.0303 25.9674C85.9445 25.9674 85.8593 25.9601 85.6773 25.9513C86.4946 24.8615 87.365 23.8965 88.1829 22.8906C89.021 21.8593 89.8727 20.8384 90.7212 19.8149C91.5573 18.8064 92.3965 17.7999 93.2336 16.7925C94.0832 15.7705 94.9333 14.7496 95.7818 13.7266C96.6158 12.7212 97.4472 11.7137 98.3337 10.6421C98.1366 10.5929 98.0311 10.5447 97.9261 10.5442C96.8519 10.5385 95.7751 10.4992 94.7035 10.552C93.4951 10.6115 92.4344 11.1101 91.6514 12.0197C90.0864 13.8363 88.5832 15.7058 87.0484 17.5483C85.7355 19.1243 84.4133 20.6919 83.0979 22.2657C82.1573 23.3907 81.2183 24.5173 80.285 25.6485C80.1108 25.8597 79.9325 25.9777 79.633 25.9762C77.1549 25.9622 74.6769 25.9684 72.1983 25.9674C72.099 25.9674 71.9992 25.9565 71.8037 25.9446C72.2446 25.3943 72.6299 24.8983 73.0313 24.4163C74.1549 23.0656 75.2868 21.7211 76.4135 20.3725C78.1054 18.3467 79.7968 16.3198 81.4866 14.2919C82.4464 13.14 83.3999 11.9824 84.3624 10.8326C85.2249 9.80182 86.0797 8.76329 86.9678 7.75375C88.3066 6.2322 90.0276 5.45874 92.0414 5.40955C94.0504 5.36037 96.0615 5.3992 98.0716 5.40023C98.1397 5.40023 98.2084 5.4137 98.3451 5.42819H98.3441Z" fill="#001D84"/>
<path d="M163.426 10.7125C165.21 10.7125 166.994 10.742 168.777 10.7042C170.597 10.6654 172.004 12.1274 172 13.8985C171.993 16.8468 172 19.7952 171.997 22.7436C171.996 24.5835 170.633 25.9627 168.799 25.9658C165.214 25.972 161.63 25.972 158.045 25.9653C156.583 25.9622 155.388 25.079 154.987 23.7034C154.892 23.3783 154.848 23.0268 154.847 22.6871C154.836 19.7905 154.844 16.8939 154.839 13.9974C154.836 12.1206 156.054 11.0169 157.456 10.7508C157.657 10.7125 157.869 10.714 158.075 10.7135C159.859 10.7109 161.643 10.712 163.426 10.712V10.7125ZM166.14 18.3746C166.14 17.3739 166.142 16.3731 166.14 15.3724C166.138 14.3271 165.547 13.7235 164.513 13.7168C163.785 13.7121 163.057 13.7406 162.33 13.71C161.306 13.6665 160.679 14.4726 160.69 15.3688C160.715 17.3356 160.695 19.3029 160.699 21.2702C160.701 22.3201 161.289 22.9476 162.353 22.9926C163.079 23.0231 163.809 23.0226 164.536 22.9926C165.536 22.9507 166.138 22.2859 166.14 21.2743C166.142 20.3083 166.14 19.3417 166.14 18.3756V18.3746Z" fill="#001D84"/>
<path d="M84.2512 5.42668V10.4997C84.0926 10.5137 83.9444 10.5375 83.7957 10.538C82.9295 10.5417 82.0633 10.5463 81.1971 10.538C79.7137 10.5241 78.5038 11.1148 77.5643 12.2273C75.8947 14.2034 74.2548 16.2044 72.5988 18.1914C71.1092 19.978 69.6138 21.76 68.1216 23.545C67.5242 24.26 66.9263 24.9744 66.3335 25.6935C66.1957 25.8602 66.0611 25.9731 65.8172 25.9726C63.2529 25.9633 60.6891 25.9664 58.1247 25.9643C58.0779 25.9643 58.0316 25.9431 57.937 25.9208C58.0909 25.708 58.2178 25.5097 58.367 25.3301C59.6445 23.7909 60.9256 22.2549 62.2068 20.7188C63.3772 19.3148 64.5475 17.9097 65.72 16.5073C67.0588 14.906 68.4034 13.3088 69.7402 11.7055C70.712 10.5406 71.6816 9.37371 72.6404 8.19799C73.8571 6.70698 75.3883 5.75905 77.3105 5.47482C77.6006 5.43185 77.8955 5.40234 78.1882 5.40131C80.0766 5.39458 81.965 5.39769 83.8535 5.39924C83.9715 5.39924 84.089 5.41529 84.2507 5.42719L84.2512 5.42668Z" fill="#001D84"/>
<path d="M115.295 23.0356H122.97C123.066 24.0223 123.004 24.9589 123.016 25.9317H108.978C108.967 25.766 108.949 25.6158 108.948 25.4657C108.945 24.7756 108.947 24.0855 108.946 23.3954C108.946 22.6219 109.197 21.9427 109.718 21.368C111.096 19.8475 112.477 18.3301 113.856 16.8101C114.644 15.9419 115.429 15.0716 116.214 14.1998C116.337 14.0621 116.444 13.9093 116.566 13.7561C116.382 13.5366 116.159 13.6168 115.969 13.6163C113.786 13.6101 111.603 13.6127 109.42 13.6111C109.215 13.6111 109.01 13.5941 108.773 13.5837V10.7498H122.705C122.734 10.7969 122.784 10.8398 122.784 10.8828C122.776 11.8463 122.793 12.8118 122.738 13.7727C122.703 14.3872 122.41 14.9215 121.99 15.3848C120.727 16.7764 119.472 18.1758 118.212 19.5705C117.288 20.594 116.36 21.6139 115.437 22.638C115.362 22.7208 115.307 22.8218 115.243 22.9144C115.261 22.9548 115.278 22.9952 115.295 23.0361V23.0356Z" fill="#001D84"/>
<path d="M101.011 10.7462H106.728C106.728 10.9646 106.728 11.1489 106.728 11.3338C106.728 15.126 106.701 18.9182 106.74 22.71C106.758 24.5038 105.392 26.0005 103.477 25.9695C102.836 25.9591 102.196 25.9679 101.555 25.9679C101.386 25.9679 101.217 25.9679 101.011 25.9679V10.7462Z" fill="#001D84"/>
</g>
<defs>
<clipPath id="clip0_20_76">
<rect width="172" height="26" fill="white"/>
</clipPath>
</defs>
</svg>
