<svg width="64" height="64" viewBox="0 0 64 64" fill="none" xmlns="http://www.w3.org/2000/svg">
<path d="M31.9992 0.00504802C14.5116 0.00504802 0.255902 14.0968 0.0034105 31.5146C-0.254131 49.205 14.1076 63.867 31.8123 63.968C37.2813 63.9982 42.5432 62.6658 47.2194 60.122C47.6739 59.8747 47.7446 59.2488 47.3557 58.9056L44.3612 56.2508C43.7552 55.7108 42.8866 55.5594 42.1393 55.8773C38.8771 57.2653 35.327 57.9719 31.6709 57.9315C17.3648 57.7549 5.81072 45.8587 6.03797 31.5651C6.26521 17.4481 17.8243 6.03643 31.9992 6.03643H57.9604V52.1576L43.23 39.0753C42.7553 38.6513 42.0231 38.7371 41.6393 39.2418C39.276 42.3711 35.423 44.3142 31.1458 44.0215C25.2122 43.6127 20.4048 38.838 19.9604 32.9076C19.4301 25.8365 25.0355 19.9111 31.9992 19.9111C38.2963 19.9111 43.4876 24.7564 44.0279 30.914C44.0784 31.4641 44.3258 31.9739 44.7349 32.3373L48.5727 35.734C49.007 36.1176 49.6989 35.8854 49.8049 35.3101C50.0826 33.8312 50.1786 32.2919 50.0726 30.7121C49.4565 21.7079 42.1544 14.4602 33.1455 13.91C22.8135 13.2741 14.1733 21.3546 13.8955 31.4793C13.6279 41.3515 21.7177 49.856 31.5952 50.0731C35.7159 50.1639 39.5386 48.8668 42.6291 46.6208L61.874 63.6752C62.6971 64.4071 64 63.8216 64 62.7213V1.21132C64 0.540048 63.4546 0 62.788 0H31.9992V0.00504802Z" fill="#003DFF"/>
</svg>
