<svg width="64" height="64" viewBox="0 0 64 64" fill="none" xmlns="http://www.w3.org/2000/svg">
<path d="M32 64C49.6731 64 64 49.6731 64 32C64 14.3269 49.6731 0 32 0C14.3269 0 0 14.3269 0 32C0 49.6731 14.3269 64 32 64Z" fill="#FFD500"/>
<path d="M36.9232 29.3416L38.4986 25.3539C41.9939 27.077 44.1601 30.6216 44.0616 34.4616C44.0124 40.0246 39.4339 44.4554 33.9201 44.357C31.9509 44.357 29.9324 43.8154 28.2586 42.7323V44.357H23.7786V34.0677C23.7786 27.8646 29.2432 23.6308 35.1509 24.4185L33.6739 28.5046C30.7201 28.6523 28.357 31.0647 28.2586 34.0185C28.1601 37.1693 30.6216 39.7785 33.7724 39.877C36.9232 39.9754 39.5324 37.5139 39.6309 34.3631C39.6309 32.3446 38.6463 30.4247 36.9232 29.3416Z" fill="#002840"/>
<path d="M28.2586 21.8093C26.5847 22.5477 25.0586 23.5816 23.7786 24.8616V15.36H28.2586V21.8093Z" fill="#002840"/>
</svg>
