<svg width="64" height="64" viewBox="0 0 64 64" fill="none" xmlns="http://www.w3.org/2000/svg">
<path d="M0 30.5648L7.38731 23.2856L12.6334 28.6202C13.7576 29.7621 13.7397 31.5819 12.5977 32.7058L7.28025 37.9512L0 30.5648Z" fill="#0D52FF"/>
<path d="M22.1798 28.3883L12.3479 18.4148L17.9151 12.9375C17.9151 12.9375 17.594 12.6699 20.0207 15.1499L33.4927 28.8343C34.6704 30.0297 34.6526 31.9743 33.4214 33.1877L17.7546 48.6385L11.9732 42.7686L22.1084 32.7772C23.3397 31.5283 23.3754 29.5836 22.1798 28.3883Z" fill="#0D52FF"/>
<path d="M62.3997 27.0144L37.4005 1.66155C35.2057 -0.568639 31.5834 -0.550798 29.2994 1.69724L23.0898 7.8169L41.3261 26.3365C43.521 28.5666 43.4495 32.1885 41.1655 34.4365L22.2154 53.1166L32.9396 64L62.239 35.1323C64.523 32.8665 64.5944 29.2446 62.3997 27.0144ZM56.6897 33.8656L52.532 37.9513L47.286 32.6167C46.1618 31.4749 46.1797 29.6549 47.3217 28.531L52.657 23.2856L56.7431 27.4427C58.4918 29.2268 58.474 32.0992 56.6897 33.8656Z" fill="#0D52FF"/>
</svg>
