<svg width="64" height="64" viewBox="0 0 64 64" fill="none" xmlns="http://www.w3.org/2000/svg">
<path d="M64 25.2856V26.5223L57.35 51.5711C56.2994 54.53 54.2045 56.474 51.2642 57.4864C43.6069 60.1221 34.978 61.533 27.1908 63.9276C24.6691 64.2352 22.0599 63.5603 20.0971 61.9471C13.8811 56.8385 8.28597 49.2698 2.11958 43.9207C0.86497 42.3595 0.400397 40.638 0 38.7128V37.4761C2.58645 29.484 3.86521 20.2692 6.65001 12.4273C7.7008 9.46863 9.79535 7.52437 12.7358 6.51205C20.3929 3.87594 29.022 2.46522 36.8092 0.0706259C39.3976 -0.224238 41.8904 0.398174 43.9029 2.05111C50.1185 7.15619 55.7142 14.7311 61.8804 20.0775C62.945 21.4022 63.8209 23.6009 64 25.2854V25.2856ZM36.1433 21.7522L41.4709 13.7534C41.8317 12.9301 41.6261 11.9461 40.6483 11.8495C37.6904 12.1235 34.1774 11.5141 31.2907 11.8546C30.1334 11.9911 30.0195 12.6945 29.7092 13.6266C28.2355 18.0534 27.4336 22.9154 25.9524 27.3687C25.6975 27.732 26.5286 28.819 26.7107 28.819H30.5014L27.8421 39.5096C27.9162 40.8088 30.0708 40.5594 30.9224 40.1062L41.0746 23.2375C41.3817 22.847 40.4741 21.7522 40.2863 21.7522H36.1431H36.1433ZM23.4952 52.2712C23.7243 52.5161 24.414 52.6475 24.7625 52.679C25.8821 52.7804 28.2543 52.7938 29.3554 52.6694C30.3415 52.558 30.6766 52.246 31.0389 51.3531C31.4291 50.3916 32.2645 47.3605 32.406 46.351C32.4923 45.7365 32.2941 45.1102 31.6913 44.8525C31.1511 44.6214 26.7994 44.6219 26.0018 44.7155C25.3232 44.7952 24.8609 45.1565 24.5949 45.7791C24.2296 46.6338 23.2174 50.6863 23.2683 51.5198C23.2824 51.7513 23.3376 52.1027 23.4954 52.2714L23.4952 52.2712Z" fill="#EA3BA7"/>
</svg>
