<svg width="64" height="64" viewBox="0 0 64 64" fill="none" xmlns="http://www.w3.org/2000/svg">
<path d="M26.3421 12.8011C25.9027 12.8011 25.4777 12.9578 25.1436 13.2432C24.8095 13.5285 24.5882 13.9237 24.5196 14.3576L18.7076 51.2L18.7059 51.2148L18.7093 51.2L21.4923 33.5575C21.6338 32.6609 22.4061 32.0011 23.3138 32.0011H32.1874C41.1178 32.0011 48.6976 25.4878 50.0819 16.6619C50.1874 15.9913 50.2438 15.3271 50.2566 14.6717L50.2556 14.6707C47.9861 13.4804 45.3211 12.8011 42.4009 12.8011H26.3421Z" fill="#001C64"/>
<path d="M50.2566 14.6717C50.2438 15.3271 50.1874 15.9913 50.0819 16.6619C48.6976 25.4878 41.1178 32.0011 32.1874 32.0011H23.3138C22.4061 32.0011 21.6338 32.6609 21.4923 33.5575L18.7093 51.2L16.9621 62.2688C16.9284 62.4826 16.9415 62.7012 17.0005 62.9094C17.0594 63.1177 17.1627 63.3107 17.3034 63.4752C17.4441 63.6398 17.6188 63.7719 17.8154 63.8624C18.012 63.953 18.226 64 18.4425 64H28.0743C28.5137 64 28.9387 63.8433 29.2728 63.5579C29.6069 63.2726 29.8282 62.8774 29.8968 62.4435L32.4341 46.3575C32.5763 45.4609 33.3489 44.8 34.2566 44.8H39.9282C48.8586 44.8 56.4373 38.2872 57.8216 29.4619C58.8043 23.1966 55.6509 17.4978 50.2566 14.6717Z" fill="#0070E0"/>
<path d="M15.3988 0C14.9592 1.36895e-05 14.5341 0.15692 14.1999 0.442462C13.8658 0.728003 13.6446 1.12342 13.5763 1.5575L6.01836 49.4677C5.98456 49.6816 5.99754 49.9003 6.05639 50.1087C6.11524 50.3171 6.21857 50.5102 6.35927 50.6748C6.49997 50.8395 6.67471 50.9717 6.87142 51.0623C7.06813 51.153 7.28216 51.1999 7.49876 51.1999L18.7076 51.2L24.5196 14.3576C24.5882 13.9237 24.8095 13.5285 25.1436 13.2432C25.4777 12.9578 25.9027 12.8011 26.3421 12.8011H42.4009C45.3217 12.8011 47.9858 13.4821 50.2556 14.6707C50.4102 6.63559 43.7776 0 34.6577 0H15.3988Z" fill="#003087"/>
</svg>
