<svg width="64" height="64" viewBox="0 0 64 64" fill="none" xmlns="http://www.w3.org/2000/svg">
<path fill-rule="evenodd" clip-rule="evenodd" d="M5.53514 0C2.47816 0 0 2.47817 0 5.53514V58.4649C0 61.5218 2.47817 64 5.53514 64H58.4649C61.5218 64 64 61.5218 64 58.4649V5.53514C64 2.47816 61.5218 0 58.4649 0H5.53514ZM32.766 23.1606C30.7854 23.1606 29.5895 23.7177 29.5895 25.1662C29.5895 26.7477 31.6476 27.4434 34.2009 28.3065C38.3634 29.7135 43.8419 31.5654 43.8651 38.4253C43.8651 45.0734 38.5211 48.8989 30.748 48.8989C27.5341 48.8989 24.0213 48.2675 20.5458 46.7819V37.9425C23.685 39.651 27.6463 40.9137 30.748 40.9137C32.8408 40.9137 34.3356 40.3566 34.3356 38.6482C34.3356 36.8964 32.1046 36.0956 29.4111 35.1289C25.3092 33.6567 20.1348 31.7996 20.1348 25.6119C20.1348 19.038 25.1798 15.1012 32.766 15.1012C35.8678 15.1012 38.9322 15.584 42.0339 16.8096V25.5376C39.1938 24.0148 35.6062 23.1606 32.766 23.1606Z" fill="#635BFF"/>
</svg>
